<mxfile host="app.diagrams.net" modified="2024-01-21T04:52:40.915Z" agent="Mozilla/5.0 (Windows NT 10.0; Win64; x64) AppleWebKit/537.36 (KHTML, like Gecko) Chrome/120.0.0.0 Safari/537.36 Edg/120.0.0.0" etag="ZJmWYj1JknCTlLQ4Y0dd" version="22.1.21" type="device">
  <diagram name="Page-1" id="0ZKex5TTegK47P9Cwkab">
    <mxGraphModel dx="996" dy="617" grid="1" gridSize="10" guides="1" tooltips="1" connect="1" arrows="1" fold="1" page="1" pageScale="1" pageWidth="827" pageHeight="1169" math="0" shadow="0">
      <root>
        <mxCell id="0" />
        <mxCell id="1" parent="0" />
        <mxCell id="yk0SG9yOvwlnivl_-iCq-3" value="" style="edgeStyle=orthogonalEdgeStyle;rounded=0;orthogonalLoop=1;jettySize=auto;html=1;" edge="1" parent="1" source="yk0SG9yOvwlnivl_-iCq-1" target="yk0SG9yOvwlnivl_-iCq-2">
          <mxGeometry relative="1" as="geometry" />
        </mxCell>
        <mxCell id="yk0SG9yOvwlnivl_-iCq-1" value="Begin" style="ellipse;whiteSpace=wrap;html=1;" vertex="1" parent="1">
          <mxGeometry x="230" y="190" width="120" height="80" as="geometry" />
        </mxCell>
        <mxCell id="yk0SG9yOvwlnivl_-iCq-5" value="" style="edgeStyle=orthogonalEdgeStyle;rounded=0;orthogonalLoop=1;jettySize=auto;html=1;" edge="1" parent="1" source="yk0SG9yOvwlnivl_-iCq-2" target="yk0SG9yOvwlnivl_-iCq-4">
          <mxGeometry relative="1" as="geometry" />
        </mxCell>
        <mxCell id="yk0SG9yOvwlnivl_-iCq-2" value="n" style="shape=parallelogram;perimeter=parallelogramPerimeter;whiteSpace=wrap;html=1;fixedSize=1;" vertex="1" parent="1">
          <mxGeometry x="230" y="360" width="120" height="60" as="geometry" />
        </mxCell>
        <mxCell id="yk0SG9yOvwlnivl_-iCq-7" value="" style="edgeStyle=orthogonalEdgeStyle;rounded=0;orthogonalLoop=1;jettySize=auto;html=1;" edge="1" parent="1" source="yk0SG9yOvwlnivl_-iCq-4" target="yk0SG9yOvwlnivl_-iCq-6">
          <mxGeometry relative="1" as="geometry" />
        </mxCell>
        <mxCell id="yk0SG9yOvwlnivl_-iCq-4" value="count = 0&lt;br&gt;x = int(sqrt(n))" style="whiteSpace=wrap;html=1;" vertex="1" parent="1">
          <mxGeometry x="230" y="500" width="120" height="60" as="geometry" />
        </mxCell>
        <mxCell id="yk0SG9yOvwlnivl_-iCq-9" value="" style="edgeStyle=orthogonalEdgeStyle;rounded=0;orthogonalLoop=1;jettySize=auto;html=1;" edge="1" parent="1" source="yk0SG9yOvwlnivl_-iCq-6" target="yk0SG9yOvwlnivl_-iCq-8">
          <mxGeometry relative="1" as="geometry" />
        </mxCell>
        <mxCell id="yk0SG9yOvwlnivl_-iCq-12" value="" style="edgeStyle=orthogonalEdgeStyle;rounded=0;orthogonalLoop=1;jettySize=auto;html=1;" edge="1" parent="1" source="yk0SG9yOvwlnivl_-iCq-6" target="yk0SG9yOvwlnivl_-iCq-11">
          <mxGeometry relative="1" as="geometry" />
        </mxCell>
        <mxCell id="yk0SG9yOvwlnivl_-iCq-6" value="x * x = n &amp;amp;&amp;amp; x % 2 = 0" style="rhombus;whiteSpace=wrap;html=1;" vertex="1" parent="1">
          <mxGeometry x="220" y="620" width="140" height="150" as="geometry" />
        </mxCell>
        <mxCell id="yk0SG9yOvwlnivl_-iCq-8" value="count = count + 1" style="whiteSpace=wrap;html=1;" vertex="1" parent="1">
          <mxGeometry x="40" y="665" width="120" height="60" as="geometry" />
        </mxCell>
        <mxCell id="yk0SG9yOvwlnivl_-iCq-10" value="true" style="text;html=1;align=center;verticalAlign=middle;resizable=0;points=[];autosize=1;strokeColor=none;fillColor=none;" vertex="1" parent="1">
          <mxGeometry x="170" y="670" width="40" height="30" as="geometry" />
        </mxCell>
        <mxCell id="yk0SG9yOvwlnivl_-iCq-16" value="" style="edgeStyle=orthogonalEdgeStyle;rounded=0;orthogonalLoop=1;jettySize=auto;html=1;" edge="1" parent="1" source="yk0SG9yOvwlnivl_-iCq-11" target="yk0SG9yOvwlnivl_-iCq-15">
          <mxGeometry relative="1" as="geometry" />
        </mxCell>
        <mxCell id="yk0SG9yOvwlnivl_-iCq-11" value="i = 1" style="whiteSpace=wrap;html=1;" vertex="1" parent="1">
          <mxGeometry x="230" y="860" width="120" height="60" as="geometry" />
        </mxCell>
        <mxCell id="yk0SG9yOvwlnivl_-iCq-13" value="false" style="text;html=1;align=center;verticalAlign=middle;resizable=0;points=[];autosize=1;strokeColor=none;fillColor=none;" vertex="1" parent="1">
          <mxGeometry x="235" y="798" width="50" height="30" as="geometry" />
        </mxCell>
        <mxCell id="yk0SG9yOvwlnivl_-iCq-14" value="" style="endArrow=classic;html=1;rounded=0;entryX=0;entryY=0.5;entryDx=0;entryDy=0;exitX=0.36;exitY=0.987;exitDx=0;exitDy=0;exitPerimeter=0;" edge="1" parent="1" source="yk0SG9yOvwlnivl_-iCq-8" target="yk0SG9yOvwlnivl_-iCq-11">
          <mxGeometry width="50" height="50" relative="1" as="geometry">
            <mxPoint x="120" y="900" as="sourcePoint" />
            <mxPoint x="170" y="850" as="targetPoint" />
            <Array as="points">
              <mxPoint x="83" y="890" />
            </Array>
          </mxGeometry>
        </mxCell>
        <mxCell id="yk0SG9yOvwlnivl_-iCq-18" value="" style="edgeStyle=orthogonalEdgeStyle;rounded=0;orthogonalLoop=1;jettySize=auto;html=1;" edge="1" parent="1" source="yk0SG9yOvwlnivl_-iCq-15" target="yk0SG9yOvwlnivl_-iCq-17">
          <mxGeometry relative="1" as="geometry" />
        </mxCell>
        <mxCell id="yk0SG9yOvwlnivl_-iCq-41" value="" style="edgeStyle=orthogonalEdgeStyle;rounded=0;orthogonalLoop=1;jettySize=auto;html=1;" edge="1" parent="1" source="yk0SG9yOvwlnivl_-iCq-15" target="yk0SG9yOvwlnivl_-iCq-40">
          <mxGeometry relative="1" as="geometry" />
        </mxCell>
        <mxCell id="yk0SG9yOvwlnivl_-iCq-15" value="i &amp;lt; x" style="rhombus;whiteSpace=wrap;html=1;" vertex="1" parent="1">
          <mxGeometry x="250" y="990" width="80" height="80" as="geometry" />
        </mxCell>
        <mxCell id="yk0SG9yOvwlnivl_-iCq-21" value="" style="edgeStyle=orthogonalEdgeStyle;rounded=0;orthogonalLoop=1;jettySize=auto;html=1;exitX=0.5;exitY=1;exitDx=0;exitDy=0;" edge="1" parent="1" source="yk0SG9yOvwlnivl_-iCq-17" target="yk0SG9yOvwlnivl_-iCq-20">
          <mxGeometry relative="1" as="geometry">
            <mxPoint x="290" y="1220.800048828125" as="sourcePoint" />
            <Array as="points">
              <mxPoint x="290" y="1230" />
              <mxPoint x="470" y="1230" />
              <mxPoint x="470" y="580" />
            </Array>
          </mxGeometry>
        </mxCell>
        <mxCell id="yk0SG9yOvwlnivl_-iCq-17" value="n % i = 0" style="rhombus;whiteSpace=wrap;html=1;" vertex="1" parent="1">
          <mxGeometry x="250" y="1130" width="80" height="80" as="geometry" />
        </mxCell>
        <mxCell id="yk0SG9yOvwlnivl_-iCq-19" value="true" style="text;html=1;align=center;verticalAlign=middle;resizable=0;points=[];autosize=1;strokeColor=none;fillColor=none;" vertex="1" parent="1">
          <mxGeometry x="250" y="1080" width="40" height="30" as="geometry" />
        </mxCell>
        <mxCell id="yk0SG9yOvwlnivl_-iCq-24" value="" style="edgeStyle=orthogonalEdgeStyle;rounded=0;orthogonalLoop=1;jettySize=auto;html=1;" edge="1" parent="1" source="yk0SG9yOvwlnivl_-iCq-20" target="yk0SG9yOvwlnivl_-iCq-23">
          <mxGeometry relative="1" as="geometry" />
        </mxCell>
        <mxCell id="yk0SG9yOvwlnivl_-iCq-20" value="i % 2 = 0" style="rhombus;whiteSpace=wrap;html=1;" vertex="1" parent="1">
          <mxGeometry x="650" y="540" width="80" height="80" as="geometry" />
        </mxCell>
        <mxCell id="yk0SG9yOvwlnivl_-iCq-22" value="true" style="text;html=1;align=center;verticalAlign=middle;resizable=0;points=[];autosize=1;strokeColor=none;fillColor=none;" vertex="1" parent="1">
          <mxGeometry x="310" y="1200" width="40" height="30" as="geometry" />
        </mxCell>
        <mxCell id="yk0SG9yOvwlnivl_-iCq-27" value="" style="edgeStyle=orthogonalEdgeStyle;rounded=0;orthogonalLoop=1;jettySize=auto;html=1;" edge="1" parent="1" source="yk0SG9yOvwlnivl_-iCq-23" target="yk0SG9yOvwlnivl_-iCq-26">
          <mxGeometry relative="1" as="geometry" />
        </mxCell>
        <mxCell id="yk0SG9yOvwlnivl_-iCq-23" value="count = count + 1" style="whiteSpace=wrap;html=1;" vertex="1" parent="1">
          <mxGeometry x="630" y="680" width="120" height="60" as="geometry" />
        </mxCell>
        <mxCell id="yk0SG9yOvwlnivl_-iCq-25" value="true" style="text;html=1;align=center;verticalAlign=middle;resizable=0;points=[];autosize=1;strokeColor=none;fillColor=none;" vertex="1" parent="1">
          <mxGeometry x="650" y="638" width="40" height="30" as="geometry" />
        </mxCell>
        <mxCell id="yk0SG9yOvwlnivl_-iCq-31" value="" style="edgeStyle=orthogonalEdgeStyle;rounded=0;orthogonalLoop=1;jettySize=auto;html=1;" edge="1" parent="1" source="yk0SG9yOvwlnivl_-iCq-26" target="yk0SG9yOvwlnivl_-iCq-30">
          <mxGeometry relative="1" as="geometry" />
        </mxCell>
        <mxCell id="yk0SG9yOvwlnivl_-iCq-26" value="(n / i) % 2 = 0" style="rhombus;whiteSpace=wrap;html=1;" vertex="1" parent="1">
          <mxGeometry x="640" y="810" width="100" height="90" as="geometry" />
        </mxCell>
        <mxCell id="yk0SG9yOvwlnivl_-iCq-28" value="" style="endArrow=classic;html=1;rounded=0;entryX=1;entryY=0.5;entryDx=0;entryDy=0;exitX=1;exitY=0.5;exitDx=0;exitDy=0;" edge="1" parent="1" source="yk0SG9yOvwlnivl_-iCq-20" target="yk0SG9yOvwlnivl_-iCq-26">
          <mxGeometry width="50" height="50" relative="1" as="geometry">
            <mxPoint x="650" y="700" as="sourcePoint" />
            <mxPoint x="700" y="650" as="targetPoint" />
            <Array as="points">
              <mxPoint x="780" y="580" />
              <mxPoint x="780" y="855" />
            </Array>
          </mxGeometry>
        </mxCell>
        <mxCell id="yk0SG9yOvwlnivl_-iCq-29" value="false" style="text;html=1;align=center;verticalAlign=middle;resizable=0;points=[];autosize=1;strokeColor=none;fillColor=none;" vertex="1" parent="1">
          <mxGeometry x="735" y="558" width="50" height="30" as="geometry" />
        </mxCell>
        <mxCell id="yk0SG9yOvwlnivl_-iCq-30" value="count = count + 1" style="whiteSpace=wrap;html=1;" vertex="1" parent="1">
          <mxGeometry x="630" y="960" width="120" height="60" as="geometry" />
        </mxCell>
        <mxCell id="yk0SG9yOvwlnivl_-iCq-32" value="true" style="text;html=1;align=center;verticalAlign=middle;resizable=0;points=[];autosize=1;strokeColor=none;fillColor=none;" vertex="1" parent="1">
          <mxGeometry x="690" y="908" width="40" height="30" as="geometry" />
        </mxCell>
        <mxCell id="yk0SG9yOvwlnivl_-iCq-33" value="i = i + 1" style="rounded=0;whiteSpace=wrap;html=1;" vertex="1" parent="1">
          <mxGeometry x="630" y="1080" width="120" height="60" as="geometry" />
        </mxCell>
        <mxCell id="yk0SG9yOvwlnivl_-iCq-34" value="" style="endArrow=classic;html=1;rounded=0;entryX=0;entryY=0.5;entryDx=0;entryDy=0;exitX=0;exitY=0.5;exitDx=0;exitDy=0;" edge="1" parent="1" source="yk0SG9yOvwlnivl_-iCq-26" target="yk0SG9yOvwlnivl_-iCq-33">
          <mxGeometry width="50" height="50" relative="1" as="geometry">
            <mxPoint x="650" y="1040" as="sourcePoint" />
            <mxPoint x="700" y="990" as="targetPoint" />
            <Array as="points">
              <mxPoint x="560" y="855" />
              <mxPoint x="560" y="1110" />
            </Array>
          </mxGeometry>
        </mxCell>
        <mxCell id="yk0SG9yOvwlnivl_-iCq-35" value="false" style="text;html=1;align=center;verticalAlign=middle;resizable=0;points=[];autosize=1;strokeColor=none;fillColor=none;" vertex="1" parent="1">
          <mxGeometry x="585" y="830" width="50" height="30" as="geometry" />
        </mxCell>
        <mxCell id="yk0SG9yOvwlnivl_-iCq-36" value="" style="endArrow=classic;html=1;rounded=0;entryX=0.5;entryY=0;entryDx=0;entryDy=0;exitX=0.5;exitY=1;exitDx=0;exitDy=0;" edge="1" parent="1" source="yk0SG9yOvwlnivl_-iCq-30" target="yk0SG9yOvwlnivl_-iCq-33">
          <mxGeometry width="50" height="50" relative="1" as="geometry">
            <mxPoint x="650" y="870" as="sourcePoint" />
            <mxPoint x="700" y="820" as="targetPoint" />
          </mxGeometry>
        </mxCell>
        <mxCell id="yk0SG9yOvwlnivl_-iCq-37" value="" style="endArrow=classic;html=1;rounded=0;entryX=1;entryY=0.5;entryDx=0;entryDy=0;exitX=1;exitY=0.5;exitDx=0;exitDy=0;" edge="1" parent="1" source="yk0SG9yOvwlnivl_-iCq-33" target="yk0SG9yOvwlnivl_-iCq-15">
          <mxGeometry width="50" height="50" relative="1" as="geometry">
            <mxPoint x="250" y="1240" as="sourcePoint" />
            <mxPoint x="300" y="1190" as="targetPoint" />
            <Array as="points">
              <mxPoint x="780" y="1110" />
              <mxPoint x="780" y="1230" />
              <mxPoint x="520" y="1230" />
              <mxPoint x="520" y="1030" />
            </Array>
          </mxGeometry>
        </mxCell>
        <mxCell id="yk0SG9yOvwlnivl_-iCq-38" value="" style="endArrow=classic;html=1;rounded=0;entryX=1;entryY=0.25;entryDx=0;entryDy=0;exitX=1;exitY=0.5;exitDx=0;exitDy=0;" edge="1" parent="1" source="yk0SG9yOvwlnivl_-iCq-17" target="yk0SG9yOvwlnivl_-iCq-33">
          <mxGeometry width="50" height="50" relative="1" as="geometry">
            <mxPoint x="480" y="1290" as="sourcePoint" />
            <mxPoint x="530" y="1240" as="targetPoint" />
            <Array as="points">
              <mxPoint x="410" y="1170" />
              <mxPoint x="810" y="1170" />
              <mxPoint x="810" y="1095" />
            </Array>
          </mxGeometry>
        </mxCell>
        <mxCell id="yk0SG9yOvwlnivl_-iCq-39" value="false" style="text;html=1;align=center;verticalAlign=middle;resizable=0;points=[];autosize=1;strokeColor=none;fillColor=none;" vertex="1" parent="1">
          <mxGeometry x="330" y="1148" width="50" height="30" as="geometry" />
        </mxCell>
        <mxCell id="yk0SG9yOvwlnivl_-iCq-44" value="" style="edgeStyle=orthogonalEdgeStyle;rounded=0;orthogonalLoop=1;jettySize=auto;html=1;" edge="1" parent="1" source="yk0SG9yOvwlnivl_-iCq-40" target="yk0SG9yOvwlnivl_-iCq-43">
          <mxGeometry relative="1" as="geometry" />
        </mxCell>
        <mxCell id="yk0SG9yOvwlnivl_-iCq-40" value="count" style="whiteSpace=wrap;html=1;" vertex="1" parent="1">
          <mxGeometry x="70" y="1000" width="120" height="60" as="geometry" />
        </mxCell>
        <mxCell id="yk0SG9yOvwlnivl_-iCq-42" value="false" style="text;html=1;align=center;verticalAlign=middle;resizable=0;points=[];autosize=1;strokeColor=none;fillColor=none;" vertex="1" parent="1">
          <mxGeometry x="205" y="998" width="50" height="30" as="geometry" />
        </mxCell>
        <mxCell id="yk0SG9yOvwlnivl_-iCq-43" value="End" style="ellipse;whiteSpace=wrap;html=1;" vertex="1" parent="1">
          <mxGeometry x="90" y="1130" width="80" height="80" as="geometry" />
        </mxCell>
      </root>
    </mxGraphModel>
  </diagram>
</mxfile>
